<?xml version="1.0" encoding="UTF-8" standalone="no"?>
<!DOCTYPE svg PUBLIC "-//W3C//DTD SVG 1.1//EN"
 "http://www.w3.org/Graphics/SVG/1.1/DTD/svg11.dtd">
<!-- Generated by graphviz version 2.43.0 (0)
 -->
<!-- Title: pastafarianism Pages: 1 -->
<svg width="224pt" height="116pt"
 viewBox="0.00 0.00 224.30 116.00" xmlns="http://www.w3.org/2000/svg" xmlns:xlink="http://www.w3.org/1999/xlink">
<g id="graph0" class="graph" transform="scale(1 1) rotate(0) translate(4 112)">
<title>pastafarianism</title>
<polygon fill="white" stroke="transparent" points="-4,4 -4,-112 220.3,-112 220.3,4 -4,4"/>
<!-- CommandRobot -->
<g id="node1" class="node">
<title>CommandRobot</title>
<polygon fill="orange" stroke="black" points="135.64,-108 34.64,-108 34.64,-72 135.64,-72 135.64,-108"/>
<text text-anchor="middle" x="85.14" y="-87.8" font-family="Times,serif" font-size="9.00">Ⓜ CommandRobot</text>
</g>
<!-- Writer -->
<g id="node2" class="node">
<title>Writer</title>
<ellipse fill="gray" stroke="black" cx="27.14" cy="-18" rx="27.27" ry="18"/>
<text text-anchor="middle" x="27.14" y="-15.8" font-family="Times,serif" font-size="9.00">Writer</text>
</g>
<!-- CommandRobot&#45;&gt;Writer -->
<g id="edge1" class="edge">
<title>CommandRobot&#45;&gt;Writer</title>
<path fill="none" stroke="black" d="M70.8,-71.7C63.36,-62.71 54.16,-51.62 46.14,-41.93"/>
<polygon fill="black" stroke="black" points="48.81,-39.67 39.73,-34.2 43.42,-44.14 48.81,-39.67"/>
</g>
<!-- CommandJointPositions -->
<g id="node3" class="node">
<title>CommandJointPositions</title>
<ellipse fill="gray" stroke="black" cx="144.14" cy="-18" rx="72.34" ry="18"/>
<text text-anchor="middle" x="144.14" y="-15.8" font-family="Times,serif" font-size="9.00">CommandJointPositions</text>
</g>
<!-- CommandRobot&#45;&gt;CommandJointPositions -->
<g id="edge2" class="edge">
<title>CommandRobot&#45;&gt;CommandJointPositions</title>
<path fill="none" stroke="black" d="M99.72,-71.7C106.79,-63.3 115.42,-53.07 123.18,-43.86"/>
<polygon fill="black" stroke="black" points="125.95,-46.01 129.72,-36.1 120.6,-41.49 125.95,-46.01"/>
</g>
</g>
</svg>
