<?xml version="1.0" encoding="UTF-8" standalone="no"?>
<!DOCTYPE svg PUBLIC "-//W3C//DTD SVG 1.1//EN"
 "http://www.w3.org/Graphics/SVG/1.1/DTD/svg11.dtd">
<!-- Generated by graphviz version 2.43.0 (0)
 -->
<!-- Title: pastafarianism Pages: 1 -->
<svg width="172pt" height="116pt"
 viewBox="0.00 0.00 172.32 116.00" xmlns="http://www.w3.org/2000/svg" xmlns:xlink="http://www.w3.org/1999/xlink">
<g id="graph0" class="graph" transform="scale(1 1) rotate(0) translate(4 112)">
<title>pastafarianism</title>
<polygon fill="white" stroke="transparent" points="-4,4 -4,-112 168.32,-112 168.32,4 -4,4"/>
<!-- CommandRobot -->
<g id="node1" class="node">
<title>CommandRobot</title>
<polygon fill="orange" stroke="black" points="122.64,-108 21.64,-108 21.64,-72 122.64,-72 122.64,-108"/>
<text text-anchor="middle" x="72.14" y="-87.8" font-family="Times,serif" font-size="9.00">Ⓜ CommandRobot</text>
</g>
<!-- Writer -->
<g id="node2" class="node">
<title>Writer</title>
<ellipse fill="gray" stroke="black" cx="27.14" cy="-18" rx="27.27" ry="18"/>
<text text-anchor="middle" x="27.14" y="-15.8" font-family="Times,serif" font-size="9.00">Writer</text>
</g>
<!-- CommandRobot&#45;&gt;Writer -->
<g id="edge1" class="edge">
<title>CommandRobot&#45;&gt;Writer</title>
<path fill="none" stroke="black" d="M61.01,-71.7C55.57,-63.23 48.92,-52.89 42.96,-43.61"/>
<polygon fill="black" stroke="black" points="45.87,-41.66 37.51,-35.14 39.98,-45.45 45.87,-41.66"/>
</g>
<!-- MoveLinearly -->
<g id="node3" class="node">
<title>MoveLinearly</title>
<ellipse fill="gray" stroke="black" cx="118.14" cy="-18" rx="46.38" ry="18"/>
<text text-anchor="middle" x="118.14" y="-15.8" font-family="Times,serif" font-size="9.00">MoveLinearly</text>
</g>
<!-- CommandRobot&#45;&gt;MoveLinearly -->
<g id="edge2" class="edge">
<title>CommandRobot&#45;&gt;MoveLinearly</title>
<path fill="none" stroke="black" d="M83.51,-71.7C88.99,-63.35 95.67,-53.18 101.7,-44.02"/>
<polygon fill="black" stroke="black" points="104.65,-45.9 107.21,-35.62 98.8,-42.06 104.65,-45.9"/>
</g>
</g>
</svg>
