<?xml version="1.0" encoding="UTF-8" standalone="no"?>
<!DOCTYPE svg PUBLIC "-//W3C//DTD SVG 1.1//EN"
 "http://www.w3.org/Graphics/SVG/1.1/DTD/svg11.dtd">
<!-- Generated by graphviz version 2.43.0 (0)
 -->
<!-- Title: pastafarianism Pages: 1 -->
<svg width="622pt" height="116pt"
 viewBox="0.00 0.00 622.19 116.00" xmlns="http://www.w3.org/2000/svg" xmlns:xlink="http://www.w3.org/1999/xlink">
<g id="graph0" class="graph" transform="scale(1 1) rotate(0) translate(4 112)">
<title>pastafarianism</title>
<polygon fill="white" stroke="transparent" points="-4,4 -4,-112 618.19,-112 618.19,4 -4,4"/>
<!-- CommandRobot -->
<g id="node1" class="node">
<title>CommandRobot</title>
<polygon fill="orange" stroke="black" points="330.64,-108 229.64,-108 229.64,-72 330.64,-72 330.64,-108"/>
<text text-anchor="middle" x="280.14" y="-87.8" font-family="Times,serif" font-size="9.00">Ⓜ CommandRobot</text>
</g>
<!-- Writer -->
<g id="node2" class="node">
<title>Writer</title>
<ellipse fill="gray" stroke="black" cx="27.14" cy="-18" rx="27.27" ry="18"/>
<text text-anchor="middle" x="27.14" y="-15.8" font-family="Times,serif" font-size="9.00">Writer</text>
</g>
<!-- CommandRobot&#45;&gt;Writer -->
<g id="edge1" class="edge">
<title>CommandRobot&#45;&gt;Writer</title>
<path fill="none" stroke="black" d="M229.3,-79.61C184.78,-70.67 118.7,-55.68 63.14,-36 61.28,-35.34 59.39,-34.62 57.5,-33.86"/>
<polygon fill="black" stroke="black" points="58.72,-30.57 48.16,-29.79 55.93,-36.99 58.72,-30.57"/>
</g>
<!-- CommandJointPositions -->
<g id="node3" class="node">
<title>CommandJointPositions</title>
<ellipse fill="gray" stroke="black" cx="144.14" cy="-18" rx="72.34" ry="18"/>
<text text-anchor="middle" x="144.14" y="-15.8" font-family="Times,serif" font-size="9.00">CommandJointPositions</text>
</g>
<!-- CommandRobot&#45;&gt;CommandJointPositions -->
<g id="edge2" class="edge">
<title>CommandRobot&#45;&gt;CommandJointPositions</title>
<path fill="none" stroke="black" d="M246.87,-71.88C227.64,-61.98 203.34,-49.47 183.2,-39.11"/>
<polygon fill="black" stroke="black" points="184.77,-35.98 174.28,-34.51 181.57,-42.2 184.77,-35.98"/>
</g>
<!-- MoveLinearly -->
<g id="node4" class="node">
<title>MoveLinearly</title>
<ellipse fill="gray" stroke="black" cx="280.14" cy="-18" rx="46.38" ry="18"/>
<text text-anchor="middle" x="280.14" y="-15.8" font-family="Times,serif" font-size="9.00">MoveLinearly</text>
</g>
<!-- CommandRobot&#45;&gt;MoveLinearly -->
<g id="edge3" class="edge">
<title>CommandRobot&#45;&gt;MoveLinearly</title>
<path fill="none" stroke="black" d="M280.14,-71.7C280.14,-63.98 280.14,-54.71 280.14,-46.11"/>
<polygon fill="black" stroke="black" points="283.64,-46.1 280.14,-36.1 276.64,-46.1 283.64,-46.1"/>
</g>
<!-- ControlGripper -->
<g id="node5" class="node">
<title>ControlGripper</title>
<ellipse fill="gray" stroke="black" cx="395.14" cy="-18" rx="50.61" ry="18"/>
<text text-anchor="middle" x="395.14" y="-15.8" font-family="Times,serif" font-size="9.00">ControlGripper</text>
</g>
<!-- CommandRobot&#45;&gt;ControlGripper -->
<g id="edge4" class="edge">
<title>CommandRobot&#45;&gt;ControlGripper</title>
<path fill="none" stroke="black" d="M308.27,-71.88C324.58,-61.95 345.19,-49.4 362.25,-39.02"/>
<polygon fill="black" stroke="black" points="364.08,-42 370.8,-33.81 360.44,-36.02 364.08,-42"/>
</g>
<!-- CommandJointPositions* -->
<g id="node6" class="node">
<title>CommandJointPositions*</title>
<ellipse fill="gray" stroke="black" cx="539.14" cy="-18" rx="75.11" ry="18"/>
<text text-anchor="middle" x="539.14" y="-15.8" font-family="Times,serif" font-size="9.00">CommandJointPositions*</text>
</g>
<!-- CommandRobot&#45;&gt;CommandJointPositions* -->
<g id="edge5" class="edge">
<title>CommandRobot&#45;&gt;CommandJointPositions*</title>
<path fill="none" stroke="black" d="M330.69,-75.34C374.03,-63.62 436.44,-46.75 481.67,-34.53"/>
<polygon fill="black" stroke="black" points="482.59,-37.91 491.33,-31.92 480.77,-31.15 482.59,-37.91"/>
</g>
</g>
</svg>
