<?xml version="1.0" encoding="UTF-8" standalone="no"?>
<!DOCTYPE svg PUBLIC "-//W3C//DTD SVG 1.1//EN"
 "http://www.w3.org/Graphics/SVG/1.1/DTD/svg11.dtd">
<!-- Generated by graphviz version 2.43.0 (0)
 -->
<!-- Title: pastafarianism Pages: 1 -->
<svg width="1030pt" height="536pt"
 viewBox="0.00 0.00 1029.98 536.00" xmlns="http://www.w3.org/2000/svg" xmlns:xlink="http://www.w3.org/1999/xlink">
<g id="graph0" class="graph" transform="scale(1 1) rotate(0) translate(4 532)">
<title>pastafarianism</title>
<polygon fill="white" stroke="transparent" points="-4,4 -4,-532 1025.98,-532 1025.98,4 -4,4"/>
<!-- KitchenService -->
<g id="node1" class="node">
<title>KitchenService</title>
<polygon fill="orange" stroke="black" points="366.09,-528 267.09,-528 267.09,-492 366.09,-492 366.09,-528"/>
<text text-anchor="middle" x="316.59" y="-507.8" font-family="Times,serif" font-size="9.00">Ⓜ KitchenService</text>
</g>
<!-- BlackboardContext -->
<g id="node2" class="node">
<title>BlackboardContext</title>
<ellipse fill="gray" stroke="black" cx="230.59" cy="-428" rx="60.74" ry="18"/>
<text text-anchor="middle" x="230.59" y="-425.8" font-family="Times,serif" font-size="9.00">BlackboardContext</text>
</g>
<!-- KitchenService&#45;&gt;BlackboardContext -->
<g id="edge1" class="edge">
<title>KitchenService&#45;&gt;BlackboardContext</title>
<path fill="none" stroke="black" d="M297.93,-491.64C285.62,-480.19 269.35,-465.06 255.89,-452.53"/>
<polygon fill="black" stroke="black" points="258.04,-449.75 248.33,-445.5 253.27,-454.88 258.04,-449.75"/>
</g>
<!-- ArrangeKitchen -->
<g id="node3" class="node">
<title>ArrangeKitchen</title>
<polygon fill="gold" stroke="black" points="497.78,-456 347.95,-456 309.4,-400 459.24,-400 497.78,-456"/>
<text text-anchor="middle" x="403.59" y="-430.8" font-family="Times,serif" font-size="9.00">ArrangeKitchen</text>
<text text-anchor="middle" x="403.59" y="-420.8" font-family="Times,serif" font-size="9.00">SuccessOnOne</text>
</g>
<!-- KitchenService&#45;&gt;ArrangeKitchen -->
<g id="edge2" class="edge">
<title>KitchenService&#45;&gt;ArrangeKitchen</title>
<path fill="none" stroke="black" d="M335.47,-491.64C344.56,-483.28 355.78,-472.96 366.48,-463.12"/>
<polygon fill="black" stroke="black" points="369.15,-465.42 374.14,-456.08 364.41,-460.27 369.15,-465.42"/>
</g>
<!-- PublishData -->
<g id="node4" class="node">
<title>PublishData</title>
<polygon fill="gold" stroke="black" points="326.91,-364 184.82,-364 148.27,-308 290.36,-308 326.91,-364"/>
<text text-anchor="middle" x="237.59" y="-338.8" font-family="Times,serif" font-size="9.00">PublishData</text>
<text text-anchor="middle" x="237.59" y="-328.8" font-family="Times,serif" font-size="9.00">SuccessOnOne</text>
</g>
<!-- ArrangeKitchen&#45;&gt;PublishData -->
<g id="edge3" class="edge">
<title>ArrangeKitchen&#45;&gt;PublishData</title>
<path fill="none" stroke="black" d="M353.79,-400C335.81,-390.25 315.35,-379.16 296.66,-369.03"/>
<polygon fill="black" stroke="black" points="298.11,-365.83 287.65,-364.14 294.77,-371.98 298.11,-365.83"/>
</g>
<!-- PerformTasks -->
<g id="node7" class="node">
<title>PerformTasks</title>
<polygon fill="orange" stroke="black" points="689.59,-354 599.59,-354 599.59,-318 689.59,-318 689.59,-354"/>
<text text-anchor="middle" x="644.59" y="-333.8" font-family="Times,serif" font-size="9.00">Ⓜ PerformTasks</text>
</g>
<!-- ArrangeKitchen&#45;&gt;PerformTasks -->
<g id="edge6" class="edge">
<title>ArrangeKitchen&#45;&gt;PerformTasks</title>
<path fill="none" stroke="black" d="M462.86,-404.87C501.62,-390.39 551.9,-371.61 589.75,-357.48"/>
<polygon fill="black" stroke="black" points="591.43,-360.59 599.58,-353.81 588.98,-354.03 591.43,-360.59"/>
</g>
<!-- PublishRobotOdometry -->
<g id="node5" class="node">
<title>PublishRobotOdometry</title>
<ellipse fill="gray" stroke="black" cx="71.59" cy="-254" rx="71.68" ry="18"/>
<text text-anchor="middle" x="71.59" y="-251.8" font-family="Times,serif" font-size="9.00">PublishRobotOdometry</text>
</g>
<!-- PublishData&#45;&gt;PublishRobotOdometry -->
<g id="edge4" class="edge">
<title>PublishData&#45;&gt;PublishRobotOdometry</title>
<path fill="none" stroke="black" d="M181.39,-307.92C158.88,-297.07 133.42,-284.8 112.69,-274.81"/>
<polygon fill="black" stroke="black" points="114.05,-271.58 103.52,-270.39 111.01,-277.88 114.05,-271.58"/>
</g>
<!-- PublishRangeFinderData -->
<g id="node6" class="node">
<title>PublishRangeFinderData</title>
<ellipse fill="gray" stroke="black" cx="237.59" cy="-254" rx="76.58" ry="18"/>
<text text-anchor="middle" x="237.59" y="-251.8" font-family="Times,serif" font-size="9.00">PublishRangeFinderData</text>
</g>
<!-- PublishData&#45;&gt;PublishRangeFinderData -->
<g id="edge5" class="edge">
<title>PublishData&#45;&gt;PublishRangeFinderData</title>
<path fill="none" stroke="black" d="M237.59,-307.92C237.59,-299.72 237.59,-290.72 237.59,-282.49"/>
<polygon fill="black" stroke="black" points="241.09,-282.27 237.59,-272.27 234.09,-282.27 241.09,-282.27"/>
</g>
<!-- GetConfigurationSpace -->
<g id="node8" class="node">
<title>GetConfigurationSpace</title>
<polygon fill="cyan" stroke="black" points="488.82,-246.54 488.82,-261.46 443,-272 378.19,-272 332.36,-261.46 332.36,-246.54 378.19,-236 443,-236 488.82,-246.54"/>
<text text-anchor="middle" x="410.59" y="-251.8" font-family="Times,serif" font-size="9.00">GetConfigurationSpace</text>
</g>
<!-- PerformTasks&#45;&gt;GetConfigurationSpace -->
<g id="edge7" class="edge">
<title>PerformTasks&#45;&gt;GetConfigurationSpace</title>
<path fill="none" stroke="black" d="M599.47,-319.58C560.5,-306.25 504.15,-286.98 463.14,-272.97"/>
<polygon fill="black" stroke="black" points="464.19,-269.63 453.6,-269.7 461.93,-276.25 464.19,-269.63"/>
</g>
<!-- GetPathToLowerLeft -->
<g id="node15" class="node">
<title>GetPathToLowerLeft</title>
<ellipse fill="gray" stroke="black" cx="570.59" cy="-254" rx="64.17" ry="18"/>
<text text-anchor="middle" x="570.59" y="-251.8" font-family="Times,serif" font-size="9.00">GetPathToLowerLeft</text>
</g>
<!-- PerformTasks&#45;&gt;GetPathToLowerLeft -->
<g id="edge14" class="edge">
<title>PerformTasks&#45;&gt;GetPathToLowerLeft</title>
<path fill="none" stroke="black" d="M628.53,-317.64C618.04,-306.3 604.21,-291.34 592.68,-278.88"/>
<polygon fill="black" stroke="black" points="595.22,-276.47 585.86,-271.5 590.08,-281.22 595.22,-276.47"/>
</g>
<!-- NavigateToLowerLeft -->
<g id="node16" class="node">
<title>NavigateToLowerLeft</title>
<ellipse fill="gray" stroke="black" cx="719.59" cy="-254" rx="66.95" ry="18"/>
<text text-anchor="middle" x="719.59" y="-251.8" font-family="Times,serif" font-size="9.00">NavigateToLowerLeft</text>
</g>
<!-- PerformTasks&#45;&gt;NavigateToLowerLeft -->
<g id="edge15" class="edge">
<title>PerformTasks&#45;&gt;NavigateToLowerLeft</title>
<path fill="none" stroke="black" d="M660.87,-317.64C671.43,-306.38 685.34,-291.54 696.97,-279.13"/>
<polygon fill="black" stroke="black" points="699.58,-281.47 703.86,-271.78 694.47,-276.68 699.58,-281.47"/>
</g>
<!-- GetPathToJar1 -->
<g id="node17" class="node">
<title>GetPathToJar1</title>
<ellipse fill="gray" stroke="black" cx="852.59" cy="-254" rx="48.49" ry="18"/>
<text text-anchor="middle" x="852.59" y="-251.8" font-family="Times,serif" font-size="9.00">GetPathToJar1</text>
</g>
<!-- PerformTasks&#45;&gt;GetPathToJar1 -->
<g id="edge16" class="edge">
<title>PerformTasks&#45;&gt;GetPathToJar1</title>
<path fill="none" stroke="black" d="M688.96,-317.94C724.95,-304.09 775.33,-284.72 810.65,-271.13"/>
<polygon fill="black" stroke="black" points="812.11,-274.32 820.19,-267.46 809.6,-267.79 812.11,-274.32"/>
</g>
<!-- NavigateToJar1 -->
<g id="node18" class="node">
<title>NavigateToJar1</title>
<ellipse fill="gray" stroke="black" cx="970.59" cy="-254" rx="51.27" ry="18"/>
<text text-anchor="middle" x="970.59" y="-251.8" font-family="Times,serif" font-size="9.00">NavigateToJar1</text>
</g>
<!-- PerformTasks&#45;&gt;NavigateToJar1 -->
<g id="edge17" class="edge">
<title>PerformTasks&#45;&gt;NavigateToJar1</title>
<path fill="none" stroke="black" d="M689.73,-324.82C742.58,-312.78 832.67,-291.86 909.59,-272 913.66,-270.95 917.88,-269.83 922.11,-268.69"/>
<polygon fill="black" stroke="black" points="923.2,-272.02 931.93,-266.02 921.36,-265.27 923.2,-272.02"/>
</g>
<!-- CheckCspaceExists -->
<g id="node9" class="node">
<title>CheckCspaceExists</title>
<ellipse fill="gray" stroke="black" cx="326.59" cy="-172" rx="61.4" ry="18"/>
<text text-anchor="middle" x="326.59" y="-169.8" font-family="Times,serif" font-size="9.00">CheckCspaceExists</text>
</g>
<!-- GetConfigurationSpace&#45;&gt;CheckCspaceExists -->
<g id="edge8" class="edge">
<title>GetConfigurationSpace&#45;&gt;CheckCspaceExists</title>
<path fill="none" stroke="black" d="M392.36,-235.64C380.34,-224.19 364.45,-209.06 351.3,-196.53"/>
<polygon fill="black" stroke="black" points="353.58,-193.87 343.92,-189.5 348.75,-198.94 353.58,-193.87"/>
</g>
<!-- MapThePlace -->
<g id="node10" class="node">
<title>MapThePlace</title>
<polygon fill="gold" stroke="black" points="583.91,-200 441.82,-200 405.27,-144 547.36,-144 583.91,-200"/>
<text text-anchor="middle" x="494.59" y="-174.8" font-family="Times,serif" font-size="9.00">MapThePlace</text>
<text text-anchor="middle" x="494.59" y="-164.8" font-family="Times,serif" font-size="9.00">SuccessOnOne</text>
</g>
<!-- GetConfigurationSpace&#45;&gt;MapThePlace -->
<g id="edge9" class="edge">
<title>GetConfigurationSpace&#45;&gt;MapThePlace</title>
<path fill="none" stroke="black" d="M428.82,-235.64C437.59,-227.28 448.43,-216.96 458.76,-207.12"/>
<polygon fill="black" stroke="black" points="461.33,-209.51 466.16,-200.08 456.5,-204.44 461.33,-209.51"/>
</g>
<!-- MoveAroundTable -->
<g id="node11" class="node">
<title>MoveAroundTable</title>
<polygon fill="orange" stroke="black" points="479.09,-108 366.09,-108 366.09,-72 479.09,-72 479.09,-108"/>
<text text-anchor="middle" x="422.59" y="-87.8" font-family="Times,serif" font-size="9.00">Ⓜ MoveAroundTable</text>
</g>
<!-- MapThePlace&#45;&gt;MoveAroundTable -->
<g id="edge10" class="edge">
<title>MapThePlace&#45;&gt;MoveAroundTable</title>
<path fill="none" stroke="black" d="M470.22,-143.92C462.01,-134.8 452.91,-124.68 444.87,-115.76"/>
<polygon fill="black" stroke="black" points="447.43,-113.36 438.14,-108.27 442.22,-118.05 447.43,-113.36"/>
</g>
<!-- MapWithRangeFinder -->
<g id="node14" class="node">
<title>MapWithRangeFinder</title>
<ellipse fill="gray" stroke="black" cx="565.59" cy="-90" rx="68.91" ry="18"/>
<text text-anchor="middle" x="565.59" y="-87.8" font-family="Times,serif" font-size="9.00">MapWithRangeFinder</text>
</g>
<!-- MapThePlace&#45;&gt;MapWithRangeFinder -->
<g id="edge13" class="edge">
<title>MapThePlace&#45;&gt;MapWithRangeFinder</title>
<path fill="none" stroke="black" d="M518.63,-143.92C526.84,-134.66 535.97,-124.37 543.99,-115.34"/>
<polygon fill="black" stroke="black" points="546.67,-117.6 550.69,-107.79 541.43,-112.95 546.67,-117.6"/>
</g>
<!-- ClockwiseAroundTable -->
<g id="node12" class="node">
<title>ClockwiseAroundTable</title>
<ellipse fill="gray" stroke="black" cx="332.59" cy="-18" rx="70.37" ry="18"/>
<text text-anchor="middle" x="332.59" y="-15.8" font-family="Times,serif" font-size="9.00">ClockwiseAroundTable</text>
</g>
<!-- MoveAroundTable&#45;&gt;ClockwiseAroundTable -->
<g id="edge11" class="edge">
<title>MoveAroundTable&#45;&gt;ClockwiseAroundTable</title>
<path fill="none" stroke="black" d="M400.34,-71.7C388.64,-62.6 374.16,-51.33 361.59,-41.55"/>
<polygon fill="black" stroke="black" points="363.7,-38.76 353.66,-35.38 359.4,-44.29 363.7,-38.76"/>
</g>
<!-- CounterClockwiseAroundTable -->
<g id="node13" class="node">
<title>CounterClockwiseAroundTable</title>
<ellipse fill="gray" stroke="black" cx="512.59" cy="-18" rx="91.6" ry="18"/>
<text text-anchor="middle" x="512.59" y="-15.8" font-family="Times,serif" font-size="9.00">CounterClockwiseAroundTable</text>
</g>
<!-- MoveAroundTable&#45;&gt;CounterClockwiseAroundTable -->
<g id="edge12" class="edge">
<title>MoveAroundTable&#45;&gt;CounterClockwiseAroundTable</title>
<path fill="none" stroke="black" d="M444.84,-71.7C456.45,-62.66 470.81,-51.5 483.32,-41.77"/>
<polygon fill="black" stroke="black" points="485.48,-44.52 491.22,-35.62 481.18,-39 485.48,-44.52"/>
</g>
</g>
</svg>
