<?xml version="1.0" encoding="UTF-8" standalone="no"?>
<!DOCTYPE svg PUBLIC "-//W3C//DTD SVG 1.1//EN"
 "http://www.w3.org/Graphics/SVG/1.1/DTD/svg11.dtd">
<!-- Generated by graphviz version 2.43.0 (0)
 -->
<!-- Title: pastafarianism Pages: 1 -->
<svg width="380pt" height="352pt"
 viewBox="0.00 0.00 380.14 352.00" xmlns="http://www.w3.org/2000/svg" xmlns:xlink="http://www.w3.org/1999/xlink">
<g id="graph0" class="graph" transform="scale(1 1) rotate(0) translate(4 348)">
<title>pastafarianism</title>
<polygon fill="white" stroke="transparent" points="-4,4 -4,-348 376.14,-348 376.14,4 -4,4"/>
<!-- Root behavior -->
<g id="node1" class="node">
<title>Root behavior</title>
<polygon fill="orange" stroke="black" points="146.94,-344 65.94,-344 65.94,-308 146.94,-308 146.94,-344"/>
<text text-anchor="middle" x="106.44" y="-323.8" font-family="Times,serif" font-size="9.00">Root behavior</text>
</g>
<!-- Writer -->
<g id="node2" class="node">
<title>Writer</title>
<ellipse fill="gray" stroke="black" cx="63.44" cy="-254" rx="27.27" ry="18"/>
<text text-anchor="middle" x="63.44" y="-251.8" font-family="Times,serif" font-size="9.00">Writer</text>
</g>
<!-- Root behavior&#45;&gt;Writer -->
<g id="edge1" class="edge">
<title>Root behavior&#45;&gt;Writer</title>
<path fill="none" stroke="black" d="M95.81,-307.7C90.66,-299.32 84.38,-289.1 78.73,-279.9"/>
<polygon fill="black" stroke="black" points="81.57,-277.83 73.35,-271.14 75.61,-281.5 81.57,-277.83"/>
</g>
<!-- GetMap -->
<g id="node3" class="node">
<title>GetMap</title>
<polygon fill="cyan" stroke="black" points="190.18,-246.54 190.18,-261.46 166.31,-272 132.56,-272 108.7,-261.46 108.7,-246.54 132.56,-236 166.31,-236 190.18,-246.54"/>
<text text-anchor="middle" x="149.44" y="-251.8" font-family="Times,serif" font-size="9.00">Ⓜ GetMap</text>
</g>
<!-- Root behavior&#45;&gt;GetMap -->
<g id="edge2" class="edge">
<title>Root behavior&#45;&gt;GetMap</title>
<path fill="none" stroke="black" d="M117.07,-307.7C122.06,-299.56 128.13,-289.69 133.65,-280.7"/>
<polygon fill="black" stroke="black" points="136.68,-282.46 138.93,-272.1 130.71,-278.79 136.68,-282.46"/>
</g>
<!-- IsCspaceAvailable -->
<g id="node4" class="node">
<title>IsCspaceAvailable</title>
<ellipse fill="gray" stroke="black" cx="67.44" cy="-172" rx="57.97" ry="18"/>
<text text-anchor="middle" x="67.44" y="-169.8" font-family="Times,serif" font-size="9.00">IsCspaceAvailable</text>
</g>
<!-- GetMap&#45;&gt;IsCspaceAvailable -->
<g id="edge3" class="edge">
<title>GetMap&#45;&gt;IsCspaceAvailable</title>
<path fill="none" stroke="black" d="M132.05,-236.03C120.26,-224.53 104.52,-209.17 91.52,-196.5"/>
<polygon fill="black" stroke="black" points="93.84,-193.87 84.24,-189.39 88.95,-198.88 93.84,-193.87"/>
</g>
<!-- GenerateMap -->
<g id="node5" class="node">
<title>GenerateMap</title>
<polygon fill="gold" stroke="black" points="321.76,-200 179.67,-200 143.11,-144 285.21,-144 321.76,-200"/>
<text text-anchor="middle" x="232.44" y="-174.8" font-family="Times,serif" font-size="9.00">GenerateMap</text>
<text text-anchor="middle" x="232.44" y="-164.8" font-family="Times,serif" font-size="9.00">SuccessOnOne</text>
</g>
<!-- GetMap&#45;&gt;GenerateMap -->
<g id="edge4" class="edge">
<title>GetMap&#45;&gt;GenerateMap</title>
<path fill="none" stroke="black" d="M167.04,-236.03C175.77,-227.62 186.64,-217.14 197,-207.16"/>
<polygon fill="black" stroke="black" points="199.64,-209.47 204.41,-200.01 194.78,-204.43 199.64,-209.47"/>
</g>
<!-- MoveAroundTable -->
<g id="node6" class="node">
<title>MoveAroundTable</title>
<polygon fill="orange" stroke="black" points="216.94,-108 103.94,-108 103.94,-72 216.94,-72 216.94,-108"/>
<text text-anchor="middle" x="160.44" y="-87.8" font-family="Times,serif" font-size="9.00">Ⓜ MoveAroundTable</text>
</g>
<!-- GenerateMap&#45;&gt;MoveAroundTable -->
<g id="edge5" class="edge">
<title>GenerateMap&#45;&gt;MoveAroundTable</title>
<path fill="none" stroke="black" d="M208.06,-143.92C199.86,-134.8 190.75,-124.68 182.72,-115.76"/>
<polygon fill="black" stroke="black" points="185.27,-113.36 175.98,-108.27 180.07,-118.05 185.27,-113.36"/>
</g>
<!-- MapWithRangeFinder -->
<g id="node9" class="node">
<title>MapWithRangeFinder</title>
<ellipse fill="gray" stroke="black" cx="303.44" cy="-90" rx="68.91" ry="18"/>
<text text-anchor="middle" x="303.44" y="-87.8" font-family="Times,serif" font-size="9.00">MapWithRangeFinder</text>
</g>
<!-- GenerateMap&#45;&gt;MapWithRangeFinder -->
<g id="edge8" class="edge">
<title>GenerateMap&#45;&gt;MapWithRangeFinder</title>
<path fill="none" stroke="black" d="M256.47,-143.92C264.69,-134.66 273.82,-124.37 281.83,-115.34"/>
<polygon fill="black" stroke="black" points="284.51,-117.6 288.53,-107.79 279.28,-112.95 284.51,-117.6"/>
</g>
<!-- ClockwiseAroundTable -->
<g id="node7" class="node">
<title>ClockwiseAroundTable</title>
<ellipse fill="gray" stroke="black" cx="70.44" cy="-18" rx="70.37" ry="18"/>
<text text-anchor="middle" x="70.44" y="-15.8" font-family="Times,serif" font-size="9.00">ClockwiseAroundTable</text>
</g>
<!-- MoveAroundTable&#45;&gt;ClockwiseAroundTable -->
<g id="edge6" class="edge">
<title>MoveAroundTable&#45;&gt;ClockwiseAroundTable</title>
<path fill="none" stroke="black" d="M138.19,-71.7C126.49,-62.6 112.01,-51.33 99.44,-41.55"/>
<polygon fill="black" stroke="black" points="101.54,-38.76 91.5,-35.38 97.25,-44.29 101.54,-38.76"/>
</g>
<!-- CounterClockwiseAroundTable -->
<g id="node8" class="node">
<title>CounterClockwiseAroundTable</title>
<ellipse fill="gray" stroke="black" cx="250.44" cy="-18" rx="91.6" ry="18"/>
<text text-anchor="middle" x="250.44" y="-15.8" font-family="Times,serif" font-size="9.00">CounterClockwiseAroundTable</text>
</g>
<!-- MoveAroundTable&#45;&gt;CounterClockwiseAroundTable -->
<g id="edge7" class="edge">
<title>MoveAroundTable&#45;&gt;CounterClockwiseAroundTable</title>
<path fill="none" stroke="black" d="M182.68,-71.7C194.3,-62.66 208.66,-51.5 221.16,-41.77"/>
<polygon fill="black" stroke="black" points="223.32,-44.52 229.07,-35.62 219.02,-39 223.32,-44.52"/>
</g>
</g>
</svg>
